<?xml version="1.0" ?><!DOCTYPE svg  PUBLIC '-//W3C//DTD SVG 1.1//EN'  'http://www.w3.org/Graphics/SVG/1.1/DTD/svg11.dtd'><svg enable-background="new 0 0 512 512" height="512px" id="Calque_1" version="1.1" viewBox="0 0 512 512" width="512px" xml:space="preserve" xmlns="http://www.w3.org/2000/svg" xmlns:xlink="http://www.w3.org/1999/xlink"><g><g><g><g><g id="XMLID_1_"><g><path d="M352.2,80.1v22.95H88.77V80.1c0-17.97,14.71-32.69,32.68-32.69h198.07        C337.49,47.41,352.2,62.13,352.2,80.1z" fill="#303C44"/><polygon fill="#DD6475" points="386.28,164.88 399.06,188.08 354.42,188.08 309.78,188.08 265.13,188.08 220.49,188.08         175.84,188.08 131.2,188.08 86.55,188.08 41.91,188.08 88.77,103.05 352.2,103.05 352.21,103.05 386.27,164.88       "/><path d="M86.55,188.08v37.04c0,10.87-7.83,19.91-18.19,21.84c-1.33,0.25-2.71,0.39-4.13,0.39        c-12.32,0-22.32-9.96-22.32-22.23v-37.04H86.55z" fill="#C9314B"/><path d="M131.2,188.08v37.04c0,12.28-10,22.23-22.32,22.23c-8.85,0-16.49-5.12-20.11-12.55v-0.01        c-1.42-2.92-2.22-6.2-2.22-9.67v-29.63v-7.41H131.2z" fill="#ECEFF0"/><path d="M175.84,188.08v37.04c0,12.28-9.99,22.23-22.32,22.23s-22.32-9.95-22.32-22.23v-37.04H175.84z" fill="#C9314B"/><path d="M220.49,188.08v37.04c0,12.28-10,22.23-22.32,22.23c-12.33,0-22.33-9.95-22.33-22.23v-37.04H220.49z" fill="#ECEFF0"/><path d="M265.13,188.08v37.04c0,12.28-9.99,22.23-22.32,22.23s-22.32-9.95-22.32-22.23v-37.04H265.13z" fill="#C9314B"/><path d="M309.78,188.08v37.04c0,12.28-10,22.23-22.32,22.23c-12.33,0-22.33-9.95-22.33-22.23v-37.04H309.78z" fill="#ECEFF0"/><path d="M354.42,188.08v37.04c0,3.47-0.8,6.75-2.22,9.67v0.01c-3.61,7.43-11.25,12.55-20.1,12.55        c-12.33,0-22.32-9.95-22.32-22.23v-37.04H354.42z" fill="#C9314B"/><path d="M399.06,188.08v37.04c0,3.02-0.61,5.91-1.71,8.54c-3.35,8.04-11.32,13.69-20.61,13.69        c-12.33,0-22.32-9.95-22.32-22.23v-37.04H399.06z" fill="#ECEFF0"/><path d="M352.2,408.95v22.96c0,17.97-14.71,32.68-32.68,32.68H121.45c-17.97,0-32.68-14.71-32.68-32.68v-22.96        h201.09H352.2z" fill="#303C44"/><path d="M352.2,234.8v174.15H88.77V234.8c3.62,7.43,11.26,12.55,20.11,12.55c12.32,0,22.32-9.95,22.32-22.23        c0,12.28,9.99,22.23,22.32,22.23c12.33,0,22.32-9.95,22.32-22.23c0,12.28,10,22.23,22.33,22.23        c12.32,0,22.32-9.95,22.32-22.23c0,12.28,9.99,22.23,22.32,22.23s22.32-9.95,22.32-22.23c0,12.28,10,22.23,22.33,22.23        c0.99,0,1.97-0.06,2.92-0.2c9.72-1.26,17.48-8.75,19.09-18.33c0.2-1.2,0.31-2.44,0.31-3.7c0,1.08,0.08,2.13,0.23,3.17        c1.54,10.78,10.84,19.06,22.09,19.06C340.95,247.35,348.59,242.23,352.2,234.8z" fill="#007ECA"/><path d="M352.2,234.8v13.33c-3.61,7.43-11.25,12.55-20.1,12.55c-12.33,0-22.32-9.95-22.32-22.23        c0,12.28-10,22.23-22.32,22.23c-12.33,0-22.33-9.95-22.33-22.23c0,12.28-9.99,22.23-22.32,22.23s-22.32-9.95-22.32-22.23        c0,12.28-10,22.23-22.32,22.23c-12.33,0-22.33-9.95-22.33-22.23c0,12.28-9.99,22.23-22.32,22.23        c-12.33,0-22.32-9.95-22.32-22.23c0,12.28-10,22.23-22.32,22.23c-8.85,0-16.49-5.12-20.11-12.55V234.8        c3.62,7.43,11.26,12.55,20.11,12.55c12.32,0,22.32-9.95,22.32-22.23c0,12.28,9.99,22.23,22.32,22.23        c12.33,0,22.32-9.95,22.32-22.23c0,12.28,10,22.23,22.33,22.23c12.32,0,22.32-9.95,22.32-22.23        c0,12.28,9.99,22.23,22.32,22.23s22.32-9.95,22.32-22.23c0,12.28,10,22.23,22.33,22.23c12.32,0,22.32-9.95,22.32-22.23        c0,12.28,9.99,22.23,22.32,22.23C340.95,247.35,348.59,242.23,352.2,234.8z" opacity="0.2"/><path d="M470.09,180.65v53.01h-72.74c1.1-2.63,1.71-5.52,1.71-8.54v-37.04l-12.78-23.2h68.04        C463.03,164.88,470.09,171.94,470.09,180.65z" fill="#FFC035"/><path d="M354.42,225.12c0,12.28,9.99,22.23,22.32,22.23c9.29,0,17.26-5.65,20.61-13.69h72.74v44.68H352.2        V234.8v-0.01C353.62,231.87,354.42,228.59,354.42,225.12z" fill="#526471"/><path d="M470.09,278.34v53.01c0,8.7-7.06,15.77-15.77,15.77H352.2v-28.3v-40.48H470.09z" fill="#FFC035"/><g opacity="0.2"><path d="M403.32,164.88h-17.04l12.78,23.2v37.04c0,3.02-0.61,5.91-1.71,8.54c-2.26,5.43-6.62,9.76-12.08,12.01         c2.62,1.08,5.49,1.68,8.51,1.68c9.29,0,17.26-5.65,20.61-13.69c1.1-2.63,1.71-5.52,1.71-8.54v-37.04L403.32,164.88z"/><path d="M354.42,225.12c0,3.47-0.8,6.75-2.22,9.67v43.55v68.78h17.04v-68.78v-32.28C360.6,243,354.42,234.78,354.42,225.12z"/></g></g><g><line fill="none" x1="88.77" x2="88.77" y1="241.92" y2="234.8"/><path d="M88.77,103.05V80.1c0-17.97,14.71-32.69,32.68-32.69h198.07c17.97,0,32.68,14.72,32.68,32.69v22.95" fill="none"/><polyline fill="none" points="352.2,389.14 352.2,347.12 352.2,318.82 352.2,278.34 352.2,234.8       "/><path d="M352.2,389.15v19.8v22.96c0,17.97-14.71,32.68-32.68,32.68H121.45c-17.97,0-32.68-14.71-32.68-32.68        v-22.96V241.93v-0.01" fill="none"/><line fill="none" x1="352.2" x2="289.86" y1="408.95" y2="408.95"/><line fill="none" x1="289.86" x2="88.77" y1="408.95" y2="408.95"/><g><g><path d="M250.05,80.4h-59.13c-2.209,0-4-1.791-4-4s1.791-4,4-4h59.13c2.209,0,4,1.791,4,4          S252.259,80.4,250.05,80.4z" fill="#ECEFF0"/></g></g><g><g><path d="M152.59,80.4h-15.94c-2.209,0-4-1.791-4-4s1.791-4,4-4h15.94c2.209,0,4,1.791,4,4          S154.799,80.4,152.59,80.4z" fill="#ECEFF0"/></g></g><g><g><path d="M250.05,439.61h-59.13c-2.209,0-4-1.791-4-4s1.791-4,4-4h59.13c2.209,0,4,1.791,4,4          S252.259,439.61,250.05,439.61z" fill="#ECEFF0"/></g></g><path d="M470.09,278.34v53.01c0,8.7-7.06,15.77-15.77,15.77H352.2" fill="none"/><path d="M386.28,164.88h68.04c8.71,0,15.77,7.06,15.77,15.77v53.01" fill="none"/><polyline fill="none" points="397.35,233.66 470.09,233.66 470.09,278.34 352.2,278.34       "/><polygon fill="none" points="88.77,103.05 41.91,188.08 86.55,188.08 131.2,188.08 175.84,188.08 220.49,188.08         265.13,188.08 309.78,188.08 354.42,188.08 399.06,188.08 386.28,164.88 386.27,164.88 352.21,103.05 352.2,103.05       "/><line fill="none" x1="41.91" x2="41.91" y1="188.08" y2="225.12"/><path d="M41.91,225.12c0,12.27,10,22.23,22.32,22.23c1.42,0,2.8-0.14,4.13-0.39        c10.36-1.93,18.19-10.97,18.19-21.84" fill="none"/><polyline fill="none" points="86.55,225.12 86.55,195.49 86.55,188.08       "/><path d="M131.2,225.12c0,12.28-10,22.23-22.32,22.23c-8.85,0-16.49-5.12-20.11-12.55v-0.01        c-1.42-2.92-2.22-6.2-2.22-9.67" fill="none"/><line fill="none" x1="131.2" x2="131.2" y1="188.08" y2="225.12"/><path d="M175.84,225.12c0,12.28-9.99,22.23-22.32,22.23s-22.32-9.95-22.32-22.23" fill="none"/><line fill="none" x1="175.84" x2="175.84" y1="188.08" y2="225.12"/><path d="M220.49,225.12c0,12.28-10,22.23-22.32,22.23c-12.33,0-22.33-9.95-22.33-22.23" fill="none"/><line fill="none" x1="220.49" x2="220.49" y1="188.08" y2="225.12"/><path d="M265.13,225.12c0,12.28-9.99,22.23-22.32,22.23s-22.32-9.95-22.32-22.23" fill="none"/><line fill="none" x1="265.13" x2="265.13" y1="188.08" y2="225.12"/><path d="M309.78,225.12c0,12.28-10,22.23-22.32,22.23c-12.33,0-22.33-9.95-22.33-22.23" fill="none"/><line fill="none" x1="309.78" x2="309.78" y1="188.08" y2="225.12"/><path d="M354.42,225.12c0,3.47-0.8,6.75-2.22,9.67v0.01c-3.61,7.43-11.25,12.55-20.1,12.55        c-12.33,0-22.32-9.95-22.32-22.23" fill="none"/><line fill="none" x1="354.42" x2="354.42" y1="188.08" y2="225.12"/><path d="M399.06,225.12c0,3.02-0.61,5.91-1.71,8.54c-3.35,8.04-11.32,13.69-20.61,13.69        c-12.33,0-22.32-9.95-22.32-22.23" fill="none"/><line fill="none" x1="399.06" x2="399.06" y1="225.12" y2="188.08"/></g></g></g></g></g><linearGradient gradientUnits="userSpaceOnUse" id="SVGID_1_" x1="64.23" x2="86.55" y1="217.715" y2="217.715"><stop offset="0" style="stop-color:#000000"/><stop offset="1" style="stop-color:#FFFFFF;stop-opacity:0"/></linearGradient><path d="M86.55,188.08v37.04c0,10.87-7.83,19.91-18.19,21.84c-1.33,0.25-2.71,0.39-4.13,0.39   v-59.27H86.55z" fill="url(#SVGID_1_)" opacity="0.2"/><linearGradient gradientUnits="userSpaceOnUse" id="SVGID_2_" x1="108.875" x2="131.195" y1="217.715" y2="217.715"><stop offset="0" style="stop-color:#000000"/><stop offset="1" style="stop-color:#FFFFFF;stop-opacity:0"/></linearGradient><path d="M131.195,188.08v37.04c0,10.87-7.83,19.91-18.19,21.84   c-1.33,0.25-2.71,0.39-4.13,0.39v-59.27H131.195z" fill="url(#SVGID_2_)" opacity="0.2"/><linearGradient gradientUnits="userSpaceOnUse" id="SVGID_3_" x1="153.52" x2="175.84" y1="217.715" y2="217.715"><stop offset="0" style="stop-color:#000000"/><stop offset="1" style="stop-color:#FFFFFF;stop-opacity:0"/></linearGradient><path d="M175.84,188.08v37.04c0,10.87-7.83,19.91-18.19,21.84c-1.33,0.25-2.71,0.39-4.13,0.39   v-59.27H175.84z" fill="url(#SVGID_3_)" opacity="0.2"/><linearGradient gradientUnits="userSpaceOnUse" id="SVGID_4_" x1="198.165" x2="220.485" y1="217.715" y2="217.715"><stop offset="0" style="stop-color:#000000"/><stop offset="1" style="stop-color:#FFFFFF;stop-opacity:0"/></linearGradient><path d="M220.485,188.08v37.04c0,10.87-7.83,19.91-18.19,21.84   c-1.33,0.25-2.71,0.39-4.13,0.39v-59.27H220.485z" fill="url(#SVGID_4_)" opacity="0.2"/><linearGradient gradientUnits="userSpaceOnUse" id="SVGID_5_" x1="242.81" x2="265.1301" y1="217.715" y2="217.715"><stop offset="0" style="stop-color:#000000"/><stop offset="1" style="stop-color:#FFFFFF;stop-opacity:0"/></linearGradient><path d="M265.13,188.08v37.04c0,10.87-7.83,19.91-18.19,21.84c-1.33,0.25-2.71,0.39-4.13,0.39   v-59.27H265.13z" fill="url(#SVGID_5_)" opacity="0.2"/><linearGradient gradientUnits="userSpaceOnUse" id="SVGID_6_" x1="287.4551" x2="309.7751" y1="217.715" y2="217.715"><stop offset="0" style="stop-color:#000000"/><stop offset="1" style="stop-color:#FFFFFF;stop-opacity:0"/></linearGradient><path d="M309.775,188.08v37.04c0,10.87-7.83,19.91-18.19,21.84   c-1.33,0.25-2.71,0.39-4.13,0.39v-59.27H309.775z" fill="url(#SVGID_6_)" opacity="0.2"/><linearGradient gradientUnits="userSpaceOnUse" id="SVGID_7_" x1="332.1001" x2="354.4201" y1="217.715" y2="217.715"><stop offset="0" style="stop-color:#000000"/><stop offset="1" style="stop-color:#FFFFFF;stop-opacity:0"/></linearGradient><path d="M354.42,188.08v37.04c0,10.87-7.83,19.91-18.19,21.84c-1.33,0.25-2.71,0.39-4.13,0.39   v-59.27H354.42z" fill="url(#SVGID_7_)" opacity="0.2"/><linearGradient gradientUnits="userSpaceOnUse" id="SVGID_8_" x1="376.7451" x2="399.0651" y1="217.715" y2="217.715"><stop offset="0" style="stop-color:#000000"/><stop offset="1" style="stop-color:#FFFFFF;stop-opacity:0"/></linearGradient><path d="M399.065,188.08v37.04c0,10.87-7.83,19.91-18.19,21.84   c-1.33,0.25-2.71,0.39-4.13,0.39v-59.27H399.065z" fill="url(#SVGID_8_)" opacity="0.2"/><linearGradient gradientUnits="userSpaceOnUse" id="SVGID_9_" x1="214.7815" x2="303.5571" y1="283.2702" y2="437.034"><stop offset="0" style="stop-color:#000000"/><stop offset="1" style="stop-color:#FFFFFF;stop-opacity:0"/></linearGradient><path d="M352.2,234.8v174.15H121.94l168.44-161.8c9.72-1.26,17.48-8.75,19.09-18.33l0.54-0.53   c1.54,10.78,10.84,19.06,22.09,19.06C340.95,247.35,348.59,242.23,352.2,234.8z" fill="url(#SVGID_9_)" opacity="0.2"/></g></svg>